<svg width="3665" height="2896" viewBox="0 0 3665 2896" fill="none" xmlns="http://www.w3.org/2000/svg">
<path d="M0 1382.14C0 1358.94 18.8017 1340.14 41.9948 1340.14H160.344C183.537 1340.14 202.339 1358.94 202.339 1382.14V2348.11C202.339 2371.3 183.537 2390.11 160.344 2390.11H41.9948C18.8017 2390.11 0 2371.3 0 2348.11V1382.14Z" fill="#6DA05C" fill-opacity="0.3"/>
<path d="M335.958 1091.97C335.958 1068.77 354.76 1049.97 377.953 1049.97H496.302C519.495 1049.97 538.297 1068.77 538.297 1091.97V2057.94C538.297 2081.13 519.495 2099.93 496.302 2099.93H377.953C354.76 2099.93 335.958 2081.13 335.958 2057.94V1091.97Z" fill="#6DA05C" fill-opacity="0.3"/>
<path d="M679.552 1217.96C679.552 1194.77 698.354 1175.96 721.547 1175.96H839.896C863.089 1175.96 881.891 1194.77 881.891 1217.96V2183.93C881.891 2207.13 863.089 2225.93 839.896 2225.93H721.547C698.354 2225.93 679.552 2207.13 679.552 2183.93V1217.96Z" fill="#6DA05C" fill-opacity="0.3"/>
<path d="M973.516 1021.33C973.516 998.136 992.317 979.333 1015.51 979.333H1133.86C1157.05 979.333 1175.85 998.136 1175.85 1021.33V1987.3C1175.85 2010.5 1157.05 2029.3 1133.86 2029.3H1015.51C992.317 2029.3 973.516 2010.5 973.516 1987.3V1021.33Z" fill="#6DA05C" fill-opacity="0.3"/>
<path d="M1277.02 1091.97C1277.02 1068.77 1295.83 1049.97 1319.02 1049.97H1437.37C1460.56 1049.97 1479.36 1068.77 1479.36 1091.97V2057.94C1479.36 2081.13 1460.56 2099.93 1437.37 2099.93H1319.02C1295.83 2099.93 1277.02 2081.13 1277.02 2057.94V1091.97Z" fill="#6DA05C" fill-opacity="0.3"/>
<path d="M1630.16 782.703C1630.16 759.507 1648.96 740.704 1672.16 740.704H1790.51C1813.7 740.704 1832.5 759.507 1832.5 782.703V2096.12C1832.5 2119.31 1813.7 2138.11 1790.51 2138.11H1672.16C1648.96 2138.11 1630.16 2119.31 1630.16 2096.12V782.703Z" fill="#6DA05C" fill-opacity="0.3"/>
<path d="M1901.22 1130.15C1901.22 1106.95 1920.02 1088.15 1943.21 1088.15H2061.56C2084.76 1088.15 2103.56 1106.95 2103.56 1130.15V2096.12C2103.56 2119.31 2084.76 2138.11 2061.56 2138.11H1943.21C1920.02 2138.11 1901.22 2119.31 1901.22 2096.12V1130.15Z" fill="#6DA05C" fill-opacity="0.3"/>
<path d="M2252.45 566.982C2252.45 543.787 2271.25 524.984 2294.44 524.984H2412.79C2435.98 524.984 2454.79 543.787 2454.79 566.982V1987.3C2454.79 2010.5 2435.98 2029.3 2412.79 2029.3H2294.44C2271.25 2029.3 2252.45 2010.5 2252.45 1987.3V566.982Z" fill="#6DA05C" fill-opacity="0.3"/>
<path d="M2571.23 870.518C2571.23 847.323 2590.03 828.519 2613.22 828.519H2731.57C2754.76 828.519 2773.57 847.323 2773.57 870.518V2019.75C2773.57 2042.95 2754.76 2061.75 2731.57 2061.75H2613.22C2590.03 2061.75 2571.23 2042.95 2571.23 2019.75V870.518Z" fill="#6DA05C" fill-opacity="0.3"/>
<path d="M2874.73 345.535C2874.73 322.339 2893.54 303.536 2916.73 303.536H3035.08C3058.27 303.536 3077.07 322.339 3077.07 345.535V2183.93C3077.07 2207.13 3058.27 2225.93 3035.08 2225.93H2916.73C2893.54 2225.93 2874.73 2207.13 2874.73 2183.93V345.535Z" fill="#6DA05C" fill-opacity="0.3"/>
<path d="M3168.7 481.076C3168.7 457.881 3187.5 439.077 3210.69 439.077H3329.04C3352.23 439.077 3371.04 457.881 3371.04 481.076V2096.12C3371.04 2119.31 3352.23 2138.11 3329.04 2138.11H3210.69C3187.5 2138.11 3168.7 2119.31 3168.7 2096.12V481.076Z" fill="#6DA05C" fill-opacity="0.3"/>
<path d="M3462.66 41.9986C3462.66 18.8034 3481.46 0 3504.66 0H3623.01C3646.2 0 3665 18.8035 3665 41.9987V2096.12C3665 2119.31 3646.2 2138.11 3623.01 2138.11H3504.66C3481.46 2138.11 3462.66 2119.31 3462.66 2096.12V41.9986Z" fill="#6DA05C" fill-opacity="0.3"/>
<path d="M0 1546.32C0 1523.12 18.8017 1504.32 41.9948 1504.32H160.344C183.537 1504.32 202.339 1523.12 202.339 1546.32V2512.28C202.339 2535.48 183.537 2554.28 160.344 2554.28H41.9948C18.8017 2554.28 0 2535.48 0 2512.28V1546.32Z" fill="#6DA05C" fill-opacity="0.3"/>
<path d="M335.958 1279.05C335.958 1255.86 354.76 1237.05 377.953 1237.05H496.302C519.495 1237.05 538.297 1255.86 538.297 1279.05V2245.02C538.297 2268.22 519.495 2287.02 496.302 2287.02H377.953C354.76 2287.02 335.958 2268.22 335.958 2245.02V1279.05Z" fill="#6DA05C" fill-opacity="0.3"/>
<path d="M679.552 1382.14C679.552 1358.94 698.354 1340.14 721.547 1340.14H839.896C863.089 1340.14 881.891 1358.94 881.891 1382.14V2348.11C881.891 2371.3 863.089 2390.11 839.896 2390.11H721.547C698.354 2390.11 679.552 2371.3 679.552 2348.11V1382.14Z" fill="#6DA05C" fill-opacity="0.3"/>
<path d="M973.516 1217.96C973.516 1194.77 992.317 1175.96 1015.51 1175.96H1133.86C1157.05 1175.96 1175.85 1194.77 1175.85 1217.96V2183.93C1175.85 2207.13 1157.05 2225.93 1133.86 2225.93H1015.51C992.317 2225.93 973.516 2207.13 973.516 2183.93V1217.96Z" fill="#6DA05C" fill-opacity="0.3"/>
<path d="M1277.02 1279.05C1277.02 1255.86 1295.83 1237.05 1319.02 1237.05H1437.37C1460.56 1237.05 1479.36 1255.86 1479.36 1279.05V2245.02C1479.36 2268.22 1460.56 2287.02 1437.37 2287.02H1319.02C1295.83 2287.02 1277.02 2268.22 1277.02 2245.02V1279.05Z" fill="#6DA05C" fill-opacity="0.3"/>
<path d="M1630.16 1021.33C1630.16 998.136 1648.96 979.333 1672.16 979.333H1790.51C1813.7 979.333 1832.5 998.136 1832.5 1021.33V1987.3C1832.5 2010.5 1813.7 2029.3 1790.51 2029.3H1672.16C1648.96 2029.3 1630.16 2010.5 1630.16 1987.3V1021.33Z" fill="#6DA05C" fill-opacity="0.3"/>
<path d="M1901.22 1279.05C1901.22 1255.86 1920.02 1237.05 1943.21 1237.05H2061.56C2084.76 1237.05 2103.56 1255.86 2103.56 1279.05V2245.02C2103.56 2268.22 2084.76 2287.02 2061.56 2287.02H1943.21C1920.02 2287.02 1901.22 2268.22 1901.22 2245.02V1279.05Z" fill="#6DA05C" fill-opacity="0.3"/>
<path d="M2252.45 782.703C2252.45 759.507 2271.25 740.704 2294.44 740.704H2412.79C2435.98 740.704 2454.79 759.507 2454.79 782.703V1956.76C2454.79 1979.95 2435.98 1998.76 2412.79 1998.76H2294.44C2271.25 1998.76 2252.45 1979.95 2252.45 1956.76V782.703Z" fill="#6DA05C" fill-opacity="0.3"/>
<path d="M2571.23 1049.97C2571.23 1026.77 2590.03 1007.97 2613.22 1007.97H2731.57C2754.76 1007.97 2773.57 1026.77 2773.57 1049.97V2224.02C2773.57 2247.22 2754.76 2266.02 2731.57 2266.02H2613.22C2590.03 2266.02 2571.23 2247.22 2571.23 2224.02V1049.97Z" fill="#6DA05C" fill-opacity="0.3"/>
<path d="M2874.73 536.438C2874.73 513.242 2893.54 494.439 2916.73 494.439H3035.08C3058.27 494.439 3077.07 513.242 3077.07 536.438V1956.76C3077.07 1979.95 3058.27 1998.76 3035.08 1998.76H2916.73C2893.54 1998.76 2874.73 1979.95 2874.73 1956.76V536.438Z" fill="#6DA05C" fill-opacity="0.3"/>
<path d="M3168.7 660.525C3168.7 637.329 3187.5 618.526 3210.69 618.526H3329.04C3352.23 618.526 3371.04 637.33 3371.04 660.525V2080.84C3371.04 2104.04 3352.23 2122.84 3329.04 2122.84H3210.69C3187.5 2122.84 3168.7 2104.04 3168.7 2080.84V660.525Z" fill="#6DA05C" fill-opacity="0.3"/>
<path d="M3462.66 288.264C3462.66 265.068 3481.46 246.265 3504.66 246.265H3623.01C3646.2 246.265 3665 265.068 3665 288.264V1975.85C3665 1999.04 3646.2 2017.85 3623.01 2017.85H3504.66C3481.46 2017.85 3462.66 1999.04 3462.66 1975.85V288.264Z" fill="#6DA05C" fill-opacity="0.3"/>
<path d="M0 1933.08C0 1909.89 18.8017 1891.09 41.9948 1891.09H160.344C183.537 1891.09 202.339 1909.89 202.339 1933.08V2746.33C202.339 2769.53 183.537 2788.33 160.344 2788.33H41.9948C18.8017 2788.33 0 2769.53 0 2746.33V1933.08Z" fill="#6DA05C" fill-opacity="0.3"/>
<path d="M335.958 1592.13C335.958 1568.94 354.76 1550.13 377.953 1550.13H496.302C519.495 1550.13 538.297 1568.94 538.297 1592.13V2405.38C538.297 2428.57 519.495 2447.38 496.302 2447.38H377.953C354.76 2447.38 335.958 2428.57 335.958 2405.38V1592.13Z" fill="#6DA05C" fill-opacity="0.3"/>
<path d="M679.552 1699.8C679.552 1676.61 698.354 1657.8 721.547 1657.8H839.896C863.089 1657.8 881.891 1676.61 881.891 1699.8V2513.05C881.891 2536.24 863.089 2555.05 839.896 2555.05H721.547C698.354 2555.05 679.552 2536.24 679.552 2513.05V1699.8Z" fill="#6DA05C" fill-opacity="0.3"/>
<path d="M973.516 1531.77C973.516 1508.58 992.317 1489.77 1015.51 1489.77H1133.86C1157.05 1489.77 1175.85 1508.58 1175.85 1531.77V2345.02C1175.85 2368.21 1157.05 2387.02 1133.86 2387.02H1015.51C992.317 2387.02 973.516 2368.21 973.516 2345.02V1531.77Z" fill="#6DA05C" fill-opacity="0.3"/>
<path d="M1277.02 1592.13C1277.02 1568.94 1295.83 1550.13 1319.02 1550.13H1437.37C1460.56 1550.13 1479.36 1568.94 1479.36 1592.13V2405.38C1479.36 2428.57 1460.56 2447.38 1437.37 2447.38H1319.02C1295.83 2447.38 1277.02 2428.57 1277.02 2405.38V1592.13Z" fill="#6DA05C" fill-opacity="0.3"/>
<path d="M1630.16 1327.85C1630.16 1304.66 1648.96 1285.85 1672.16 1285.85H1790.51C1813.7 1285.85 1832.5 1304.66 1832.5 1327.85V2438.01C1832.5 2461.2 1813.7 2480 1790.51 2480H1672.16C1648.96 2480 1630.16 2461.2 1630.16 2438.01V1327.85Z" fill="#6DA05C" fill-opacity="0.3"/>
<path d="M1901.22 1624.76C1901.22 1601.56 1920.02 1582.76 1943.21 1582.76H2061.56C2084.76 1582.76 2103.56 1601.56 2103.56 1624.76V2438.01C2103.56 2461.2 2084.76 2480 2061.56 2480H1943.21C1920.02 2480 1901.22 2461.2 1901.22 2438.01V1624.76Z" fill="#6DA05C" fill-opacity="0.3"/>
<path d="M2252.45 1143.51C2252.45 1120.31 2271.25 1101.51 2294.44 1101.51H2412.79C2435.98 1101.51 2454.79 1120.31 2454.79 1143.51V2345.02C2454.79 2368.21 2435.98 2387.02 2412.79 2387.02H2294.44C2271.25 2387.02 2252.45 2368.21 2252.45 2345.02V1143.51Z" fill="#6DA05C" fill-opacity="0.3"/>
<path d="M2571.23 1402.89C2571.23 1379.7 2590.03 1360.9 2613.22 1360.9H2731.57C2754.76 1360.9 2773.57 1379.7 2773.57 1402.89V2372.75C2773.57 2395.95 2754.76 2414.75 2731.57 2414.75H2613.22C2590.03 2414.75 2571.23 2395.95 2571.23 2372.75V1402.89Z" fill="#6DA05C" fill-opacity="0.3"/>
<path d="M2874.73 954.273C2874.73 931.077 2893.54 912.274 2916.73 912.274H3035.08C3058.27 912.274 3077.07 931.077 3077.07 954.273V2513.05C3077.07 2536.24 3058.27 2555.05 3035.08 2555.05H2916.73C2893.54 2555.05 2874.73 2536.24 2874.73 2513.05V954.273Z" fill="#6DA05C" fill-opacity="0.3"/>
<path d="M3168.7 1070.1C3168.7 1046.9 3187.5 1028.1 3210.69 1028.1H3329.04C3352.23 1028.1 3371.04 1046.9 3371.04 1070.1V2438.01C3371.04 2461.2 3352.23 2480 3329.04 2480H3210.69C3187.5 2480 3168.7 2461.2 3168.7 2438.01V1070.1Z" fill="#6DA05C" fill-opacity="0.3"/>
<path d="M3462.66 694.887C3462.66 671.692 3481.46 652.889 3504.66 652.889H3623.01C3646.2 652.889 3665 671.692 3665 694.887V2438.01C3665 2461.2 3646.2 2480 3623.01 2480H3504.66C3481.46 2480 3462.66 2461.2 3462.66 2438.01V694.887Z" fill="#6DA05C" fill-opacity="0.3"/>
<path d="M0 2040.75C0 2017.56 18.8017 1998.76 41.9948 1998.76H160.344C183.537 1998.76 202.339 2017.56 202.339 2040.75V2854C202.339 2877.2 183.537 2896 160.344 2896H41.9948C18.8017 2896 0 2877.2 0 2854V2040.75Z" fill="#6DA05C" fill-opacity="0.3"/>
<path d="M335.958 1752C335.958 1728.81 354.76 1710.01 377.953 1710.01H496.302C519.495 1710.01 538.297 1728.81 538.297 1752V2565.25C538.297 2588.45 519.495 2607.25 496.302 2607.25H377.953C354.76 2607.25 335.958 2588.45 335.958 2565.25V1752Z" fill="#6DA05C" fill-opacity="0.3"/>
<path d="M679.552 1840.1C679.552 1816.9 698.354 1798.1 721.547 1798.1H839.896C863.089 1798.1 881.891 1816.9 881.891 1840.1V2653.35C881.891 2676.54 863.089 2695.34 839.896 2695.34H721.547C698.354 2695.34 679.552 2676.54 679.552 2653.34V1840.1Z" fill="#6DA05C" fill-opacity="0.3"/>
<path d="M973.516 1699.8C973.516 1676.61 992.317 1657.8 1015.51 1657.8H1133.86C1157.05 1657.8 1175.85 1676.61 1175.85 1699.8V2513.05C1175.85 2536.24 1157.05 2555.05 1133.86 2555.05H1015.51C992.317 2555.05 973.516 2536.24 973.516 2513.05V1699.8Z" fill="#6DA05C" fill-opacity="0.3"/>
<path d="M1277.02 1752C1277.02 1728.81 1295.83 1710.01 1319.02 1710.01H1437.37C1460.56 1710.01 1479.36 1728.81 1479.36 1752V2565.25C1479.36 2588.45 1460.56 2607.25 1437.37 2607.25H1319.02C1295.83 2607.25 1277.02 2588.45 1277.02 2565.25V1752Z" fill="#6DA05C" fill-opacity="0.3"/>
<path d="M1630.16 1531.77C1630.16 1508.58 1648.96 1489.77 1672.16 1489.77H1790.51C1813.7 1489.77 1832.5 1508.58 1832.5 1531.77V2345.02C1832.5 2368.21 1813.7 2387.02 1790.51 2387.02H1672.16C1648.96 2387.02 1630.16 2368.21 1630.16 2345.02V1531.77Z" fill="#6DA05C" fill-opacity="0.3"/>
<path d="M1901.22 1752C1901.22 1728.81 1920.02 1710.01 1943.21 1710.01H2061.56C2084.76 1710.01 2103.56 1728.81 2103.56 1752V2565.25C2103.56 2588.45 2084.76 2607.25 2061.56 2607.25H1943.21C1920.02 2607.25 1901.22 2588.45 1901.22 2565.25V1752Z" fill="#6DA05C" fill-opacity="0.3"/>
<path d="M2252.45 1327.85C2252.45 1304.66 2271.25 1285.85 2294.44 1285.85H2412.79C2435.98 1285.85 2454.79 1304.66 2454.79 1327.85V2318.92C2454.79 2342.11 2435.98 2360.92 2412.79 2360.92H2294.44C2271.25 2360.92 2252.45 2342.11 2252.45 2318.92V1327.85Z" fill="#6DA05C" fill-opacity="0.3"/>
<path d="M2571.23 1556.24C2571.23 1533.05 2590.03 1514.24 2613.22 1514.24H2731.57C2754.76 1514.24 2773.57 1533.05 2773.57 1556.24V2547.31C2773.57 2570.5 2754.76 2589.31 2731.57 2589.31H2613.22C2590.03 2589.31 2571.23 2570.5 2571.23 2547.31V1556.24Z" fill="#6DA05C" fill-opacity="0.3"/>
<path d="M2874.73 1117.41C2874.73 1094.21 2893.54 1075.41 2916.73 1075.41H3035.08C3058.27 1075.41 3077.07 1094.21 3077.07 1117.41V2318.92C3077.07 2342.11 3058.27 2360.92 3035.08 2360.92H2916.73C2893.54 2360.92 2874.73 2342.11 2874.73 2318.92V1117.41Z" fill="#6DA05C" fill-opacity="0.3"/>
<path d="M3168.7 1223.45C3168.7 1200.25 3187.5 1181.45 3210.69 1181.45H3329.04C3352.23 1181.45 3371.04 1200.25 3371.04 1223.45V2424.96C3371.04 2448.15 3352.23 2466.95 3329.04 2466.95H3210.69C3187.5 2466.95 3168.7 2448.15 3168.7 2424.96V1223.45Z" fill="#6DA05C" fill-opacity="0.3"/>
<path d="M3462.66 905.332C3462.66 882.137 3481.46 863.333 3504.66 863.333H3623.01C3646.2 863.333 3665 882.137 3665 905.332V2335.23C3665 2358.43 3646.2 2377.23 3623.01 2377.23H3504.66C3481.46 2377.23 3462.66 2358.43 3462.66 2335.23V905.332Z" fill="#6DA05C" fill-opacity="0.3"/>
</svg>
