<svg width="71" height="71" viewBox="0 0 71 71" fill="none" xmlns="http://www.w3.org/2000/svg">
<path d="M65.9314 22.5671V53.3325C65.6727 53.9163 65.3956 54.4932 65.1072 55.0633C68.8057 49.4693 70.8457 42.943 70.9916 36.2385C71.1374 29.534 69.3831 22.9251 65.9314 17.1755V20.3212C65.9566 21.0332 65.9428 21.7773 65.9314 22.5671Z" fill="#DEEAD9"/>
<path d="M58.7586 22.2284V14.5519C58.761 14.0477 58.963 13.565 59.3204 13.2093C59.6778 12.8537 60.1615 12.654 60.6657 12.654H62.6918C56.9462 5.82294 48.8388 1.40604 39.9837 0.282537C31.1286 -0.840967 22.1751 1.41133 14.9055 6.59107C7.636 11.7708 2.58359 19.4981 0.754063 28.2347C-1.07547 36.9714 0.452058 46.0765 5.03257 53.7378V33.7831C5.03257 33.5327 5.0819 33.2847 5.17774 33.0533C5.27358 32.8219 5.41405 32.6117 5.59114 32.4346C5.76823 32.2575 5.97847 32.117 6.20985 32.0212C6.44123 31.9254 6.68922 31.876 6.93966 31.876H10.2983C10.804 31.876 11.2891 32.077 11.6468 32.4346C12.0044 32.7923 12.2053 33.2773 12.2053 33.7831V62.2819C12.68 62.6925 13.1639 63.0901 13.6568 63.4747V40.6514C13.6593 40.1472 13.8613 39.6645 14.2186 39.3088C14.576 38.9531 15.0597 38.7535 15.5639 38.7535H18.9225C19.173 38.7535 19.421 38.8028 19.6523 38.8987C19.8837 38.9945 20.094 39.135 20.2711 39.3121C20.4481 39.4891 20.5886 39.6994 20.6845 39.9308C20.7803 40.1621 20.8296 40.4101 20.8296 40.6606V67.8292C21.4432 68.1062 22.0682 68.3672 22.7001 68.6122V25.2459C22.6998 24.9952 22.7489 24.747 22.8446 24.5153C22.9403 24.2837 23.0807 24.0732 23.2579 23.8959C23.435 23.7185 23.6453 23.5778 23.8768 23.4819C24.1084 23.3859 24.3566 23.3365 24.6072 23.3365H27.9658C28.2164 23.3365 28.4646 23.3859 28.6961 23.4819C28.9277 23.5778 29.138 23.7185 29.3151 23.8959C29.4922 24.0732 29.6327 24.2837 29.7284 24.5153C29.8241 24.747 29.8732 24.9952 29.8729 25.2459V70.5353C30.4658 70.6315 31.0634 70.7093 31.6655 70.7757V45.8507C31.6655 45.3443 31.8667 44.8587 32.2247 44.5006C32.5828 44.1425 33.0685 43.9413 33.5749 43.9413H36.9312C37.182 43.941 37.4304 43.9902 37.6622 44.0861C37.894 44.1819 38.1046 44.3225 38.282 44.4999C38.4594 44.6773 38.6 44.8879 38.6958 45.1197C38.7917 45.3515 38.8409 45.5999 38.8406 45.8507V70.8215C39.5076 70.7605 40.1684 70.6803 40.8232 70.5811V18.9774C40.8238 18.4714 41.0253 17.9863 41.3833 17.6287C41.7413 17.2712 42.2266 17.0703 42.7326 17.0703H46.0889C46.3395 17.07 46.5878 17.1191 46.8194 17.2148C47.0511 17.3105 47.2616 17.4509 47.4389 17.6281C47.6162 17.8052 47.7569 18.0155 47.8529 18.2471C47.9489 18.4786 47.9983 18.7268 47.9983 18.9774V68.7107C48.6164 68.4787 49.2269 68.2291 49.8298 67.962V25.2459C49.8295 24.9952 49.8786 24.747 49.9743 24.5153C50.07 24.2837 50.2105 24.0732 50.3876 23.8959C50.5647 23.7185 50.775 23.5778 51.0066 23.4819C51.2381 23.3859 51.4863 23.3365 51.7369 23.3365H55.0955C55.3461 23.3365 55.5943 23.3859 55.8259 23.4819C56.0574 23.5778 56.2677 23.7185 56.4448 23.8959C56.622 24.0732 56.7624 24.2837 56.8581 24.5153C56.9538 24.747 57.0029 24.9952 57.0026 25.2459V63.7311C57.6024 63.2733 58.1878 62.7978 58.7586 62.3048V22.2398V22.2284Z" fill="#DEEAD9"/>
<path d="M6.93959 39.5525H10.2982C10.804 39.5525 11.2891 39.7535 11.6467 40.1111C12.0044 40.4688 12.2053 40.9539 12.2053 41.4596V33.7832C12.2029 33.279 12.0009 32.7963 11.6435 32.4406C11.2861 32.0849 10.8024 31.8852 10.2982 31.8853H6.93959C6.43379 31.8853 5.94872 32.0862 5.59107 32.4438C5.23342 32.8015 5.03249 33.2866 5.03249 33.7923V41.4688C5.03129 41.2176 5.07973 40.9686 5.17503 40.7362C5.27033 40.5037 5.41061 40.2924 5.58782 40.1144C5.76503 39.9363 5.97567 39.795 6.20765 39.6986C6.43963 39.6022 6.68837 39.5525 6.93959 39.5525Z" fill="#89C878"/>
<path d="M15.5638 46.4208H18.9224C19.4282 46.4208 19.9133 46.6218 20.2709 46.9794C20.6286 47.3371 20.8295 47.8221 20.8295 48.3279V40.6515C20.8295 40.401 20.7802 40.153 20.6843 39.9217C20.5885 39.6903 20.448 39.4801 20.2709 39.303C20.0939 39.1259 19.8836 38.9854 19.6522 38.8896C19.4209 38.7937 19.1729 38.7444 18.9224 38.7444H15.5638C15.058 38.7444 14.573 38.9453 14.2153 39.303C13.8577 39.6606 13.6567 40.1457 13.6567 40.6515V48.3279C13.6567 47.8221 13.8577 47.3371 14.2153 46.9794C14.573 46.6218 15.058 46.4208 15.5638 46.4208Z" fill="#89C878"/>
<path d="M24.6071 31.006H27.9657C28.4715 31.006 28.9565 31.2069 29.3142 31.5646C29.6718 31.9222 29.8728 32.4073 29.8728 32.9131V25.2458C29.8731 24.9952 29.8239 24.7469 29.7282 24.5153C29.6325 24.2836 29.4921 24.0731 29.315 23.8958C29.1379 23.7185 28.9275 23.5778 28.696 23.4818C28.4645 23.3858 28.2163 23.3364 27.9657 23.3364H24.6071C24.3564 23.3364 24.1083 23.3858 23.8767 23.4818C23.6452 23.5778 23.4349 23.7185 23.2577 23.8958C23.0806 24.0731 22.9402 24.2836 22.8445 24.5153C22.7488 24.7469 22.6997 24.9952 22.7 25.2458V32.9223C22.6988 32.6711 22.7472 32.4221 22.8425 32.1896C22.9378 31.9572 23.0781 31.7459 23.2553 31.5678C23.4325 31.3898 23.6432 31.2485 23.8751 31.1521C24.1071 31.0556 24.3558 31.006 24.6071 31.006Z" fill="#89C878"/>
<path d="M33.5749 51.611H36.9312C37.1819 51.6107 37.4301 51.6598 37.6617 51.7555C37.8934 51.8512 38.1039 51.9916 38.2812 52.1688C38.4586 52.3459 38.5992 52.5562 38.6952 52.7877C38.7912 53.0193 38.8406 53.2675 38.8406 53.5181V45.8508C38.8409 45.6 38.7917 45.3515 38.6959 45.1197C38.6 44.8879 38.4594 44.6773 38.282 44.5C38.1047 44.3226 37.8941 44.182 37.6623 44.0861C37.4305 43.9903 37.1821 43.9411 36.9312 43.9414H33.5749C33.0685 43.9414 32.5829 44.1426 32.2248 44.5007C31.8667 44.8587 31.6655 45.3444 31.6655 45.8508V53.5272C31.6646 53.2759 31.7134 53.0269 31.8089 52.7944C31.9045 52.562 32.045 52.3507 32.2224 52.1727C32.3997 51.9946 32.6105 51.8534 32.8426 51.757C33.0748 51.6606 33.3236 51.611 33.5749 51.611Z" fill="#89C878"/>
<path d="M42.7326 24.7468H46.0889C46.3398 24.7465 46.5882 24.7957 46.82 24.8915C47.0518 24.9873 47.2624 25.128 47.4397 25.3053C47.6171 25.4827 47.7577 25.6933 47.8536 25.9251C47.9494 26.1569 47.9986 26.4053 47.9983 26.6562V18.9774C47.9983 18.7268 47.9489 18.4786 47.8529 18.2471C47.7569 18.0155 47.6163 17.8052 47.4389 17.6281C47.2616 17.451 47.0511 17.3105 46.8194 17.2148C46.5878 17.1191 46.3396 17.07 46.0889 17.0703H42.7326C42.2266 17.0703 41.7413 17.2712 41.3833 17.6287C41.0253 17.9863 40.8238 18.4714 40.8232 18.9774V26.6562C40.8232 26.1498 41.0244 25.6641 41.3825 25.306C41.7406 24.9479 42.2262 24.7468 42.7326 24.7468Z" fill="#89C878"/>
<path d="M51.7369 31.006H55.0955C55.6013 31.006 56.0864 31.2069 56.4441 31.5646C56.8017 31.9222 57.0026 32.4073 57.0026 32.9131V25.2458C57.0029 24.9952 56.9538 24.7469 56.8581 24.5153C56.7624 24.2836 56.622 24.0731 56.4449 23.8958C56.2678 23.7185 56.0574 23.5778 55.8259 23.4818C55.5944 23.3858 55.3462 23.3364 55.0955 23.3364H51.7369C51.4863 23.3364 51.2381 23.3858 51.0066 23.4818C50.7751 23.5778 50.5647 23.7185 50.3876 23.8958C50.2105 24.0731 50.0701 24.2836 49.9744 24.5153C49.8787 24.7469 49.8296 24.9952 49.8299 25.2458V32.9223C49.8286 32.6711 49.8771 32.4221 49.9724 32.1896C50.0677 31.9572 50.208 31.7459 50.3852 31.5678C50.5624 31.3898 50.773 31.2485 51.005 31.1521C51.237 31.0556 51.4857 31.006 51.7369 31.006Z" fill="#89C878"/>
<path d="M58.7585 14.552V22.2284C58.7585 21.7227 58.9595 21.2376 59.3171 20.8799C59.6748 20.5223 60.1598 20.3213 60.6656 20.3213H65.9313V17.1757C64.9715 15.586 63.8883 14.0741 62.6918 12.6541H60.6656C60.1614 12.654 59.6777 12.8537 59.3203 13.2094C58.963 13.5651 58.761 14.0478 58.7585 14.552Z" fill="#89C878"/>
<path d="M65.9313 24.33V22.5671C65.9244 23.128 65.9175 23.7096 65.9313 24.33Z" fill="#89C878"/>
<path d="M12.2053 41.4596C12.2053 40.9538 12.0043 40.4687 11.6467 40.1111C11.289 39.7534 10.804 39.5525 10.2982 39.5525H6.93957C6.43377 39.5525 5.9487 39.7534 5.59105 40.1111C5.2334 40.4687 5.03247 40.9538 5.03247 41.4596V53.7378C6.96128 56.9438 9.3817 59.827 12.2053 62.2819V41.4596Z" fill="#6DA05C"/>
<path d="M20.8295 48.328C20.8295 47.8222 20.6286 47.3371 20.2709 46.9795C19.9133 46.6218 19.4282 46.4209 18.9224 46.4209H15.5638C15.058 46.4209 14.573 46.6218 14.2153 46.9795C13.8577 47.3371 13.6567 47.8222 13.6567 48.328V63.4794C15.8676 65.2075 18.2753 66.6676 20.8295 67.8294V48.328Z" fill="#6DA05C"/>
<path d="M29.873 32.9132C29.873 32.4074 29.6721 31.9223 29.3144 31.5647C28.9568 31.207 28.4717 31.0061 27.9659 31.0061H24.6073C24.1015 31.0061 23.6164 31.207 23.2588 31.5647C22.9011 31.9223 22.7002 32.4074 22.7002 32.9132V68.6054C25.0165 69.4995 27.4208 70.1464 29.873 70.5354V32.9132Z" fill="#6DA05C"/>
<path d="M38.8406 53.5179C38.8406 53.2673 38.7912 53.0191 38.6952 52.7876C38.5992 52.5561 38.4585 52.3457 38.2812 52.1686C38.1039 51.9915 37.8934 51.8511 37.6617 51.7553C37.4301 51.6596 37.1818 51.6105 36.9312 51.6108H33.5749C33.0689 51.6108 32.5836 51.8117 32.2256 52.1693C31.8676 52.5269 31.6661 53.0119 31.6655 53.5179V70.7757C32.9355 70.9106 34.2117 70.9787 35.4889 70.9794C36.6198 70.9794 37.7371 70.9245 38.8406 70.8214V53.5179Z" fill="#6DA05C"/>
<path d="M47.9983 26.6562C47.9986 26.4054 47.9494 26.157 47.8536 25.9252C47.7577 25.6934 47.6171 25.4828 47.4397 25.3054C47.2624 25.128 47.0518 24.9874 46.82 24.8916C46.5882 24.7957 46.3398 24.7465 46.0889 24.7468H42.7326C42.2262 24.7468 41.7406 24.948 41.3825 25.3061C41.0244 25.6641 40.8232 26.1498 40.8232 26.6562V70.5766C43.2741 70.2072 45.6791 69.5802 47.9983 68.7061V26.6562Z" fill="#6DA05C"/>
<path d="M57.0026 32.9132C57.0026 32.4074 56.8017 31.9223 56.444 31.5647C56.0864 31.207 55.6013 31.0061 55.0955 31.0061H51.7369C51.2311 31.0061 50.7461 31.207 50.3884 31.5647C50.0308 31.9223 49.8298 32.4074 49.8298 32.9132V67.9621C52.3787 66.8347 54.7861 65.4116 57.0026 63.722V32.9132Z" fill="#6DA05C"/>
<path d="M65.8879 20.376V22.6219C65.8994 21.8321 65.9131 21.088 65.8879 20.376Z" fill="#6DA05C"/>
<path d="M65.9313 20.3213H60.6656C60.1598 20.3213 59.6748 20.5222 59.3171 20.8799C58.9595 21.2375 58.7585 21.7226 58.7585 22.2284V62.2934C61.1915 60.1803 63.3271 57.7474 65.1071 55.0611C65.3956 54.491 65.6726 53.9164 65.9313 53.3303V24.3301C65.9176 23.7165 65.9313 23.135 65.9313 22.5741V20.3213Z" fill="#6DA05C"/>
</svg>
