<svg width="1920" height="1080" viewBox="0 0 1920 1080" fill="none" xmlns="http://www.w3.org/2000/svg">
<g clip-path="url(#clip0)">
<rect width="1920" height="1080" fill="#F0FEEB"/>
<rect y="942" width="106" height="550" rx="22" fill="#89C878" fill-opacity="0.3"/>
<rect x="176" y="790" width="106" height="550" rx="22" fill="#89C878" fill-opacity="0.3"/>
<rect x="356" y="856" width="106" height="550" rx="22" fill="#89C878" fill-opacity="0.3"/>
<rect x="510" y="753" width="106" height="550" rx="22" fill="#89C878" fill-opacity="0.3"/>
<rect x="669" y="790" width="106" height="550" rx="22" fill="#89C878" fill-opacity="0.3"/>
<rect x="854" y="628" width="106" height="732" rx="22" fill="#89C878" fill-opacity="0.3"/>
<rect x="996" y="810" width="106" height="550" rx="22" fill="#89C878" fill-opacity="0.3"/>
<rect x="1180" y="515" width="106" height="788" rx="22" fill="#89C878" fill-opacity="0.3"/>
<rect x="1347" y="674" width="106" height="646" rx="22" fill="#89C878" fill-opacity="0.3"/>
<rect x="1506" y="399" width="106" height="1007" rx="22" fill="#89C878" fill-opacity="0.3"/>
<rect x="1660" y="470" width="106" height="890" rx="22" fill="#89C878" fill-opacity="0.3"/>
<rect x="1814" y="240" width="106" height="1120" rx="22" fill="#89C878" fill-opacity="0.3"/>
<rect y="1028" width="106" height="550" rx="22" fill="#6DA05C" fill-opacity="0.3"/>
<rect x="176" y="888" width="106" height="550" rx="22" fill="#6DA05C" fill-opacity="0.3"/>
<rect x="356" y="942" width="106" height="550" rx="22" fill="#6DA05C" fill-opacity="0.3"/>
<rect x="510" y="856" width="106" height="550" rx="22" fill="#6DA05C" fill-opacity="0.3"/>
<rect x="669" y="888" width="106" height="550" rx="22" fill="#6DA05C" fill-opacity="0.3"/>
<rect x="854" y="753" width="106" height="550" rx="22" fill="#6DA05C" fill-opacity="0.3"/>
<rect x="996" y="888" width="106" height="550" rx="22" fill="#6DA05C" fill-opacity="0.3"/>
<rect x="1180" y="628" width="106" height="659" rx="22" fill="#6DA05C" fill-opacity="0.3"/>
<rect x="1347" y="768" width="106" height="659" rx="22" fill="#6DA05C" fill-opacity="0.3"/>
<rect x="1506" y="499" width="106" height="788" rx="22" fill="#6DA05C" fill-opacity="0.3"/>
<rect x="1660" y="564" width="106" height="788" rx="22" fill="#6DA05C" fill-opacity="0.3"/>
<rect x="1814" y="369" width="106" height="928" rx="22" fill="#6DA05C" fill-opacity="0.3"/>
</g>
<defs>
<clipPath id="clip0">
<rect width="1920" height="1080" fill="white"/>
</clipPath>
</defs>
</svg>
