<svg width="775" height="924" viewBox="0 0 775 924" fill="none" xmlns="http://www.w3.org/2000/svg">
<g clip-path="url(#clip0)">
<path d="M707 678.5C658.333 780.833 578.167 826.5 466.5 815.5C354.833 804.5 244.667 753.333 136 662C27.3333 570.667 24.5 474.333 127.5 373C230.5 271.667 350.333 204 487 170C623.667 136 706.667 186.667 736 322C765.333 457.333 755.667 576.167 707 678.5Z" fill="#82B76E"/>
<path d="M637.06 406.223V601.838C635.417 605.55 633.658 609.218 631.826 612.843C655.315 577.275 668.271 535.778 669.197 493.149C670.123 450.52 658.982 408.499 637.06 371.942V391.943C637.22 396.47 637.133 401.201 637.06 406.223Z" fill="#DEEAD9"/>
<path d="M591.507 404.069V355.259C591.522 352.054 592.805 348.984 595.075 346.723C597.345 344.461 600.417 343.192 603.619 343.192H616.486C579.997 299.758 528.508 271.674 472.27 264.531C416.032 257.387 359.17 271.708 313.002 304.642C266.835 337.576 234.747 386.709 223.128 442.259C211.509 497.808 221.21 555.702 250.3 604.414V477.537C250.3 475.944 250.614 474.368 251.222 472.896C251.831 471.425 252.723 470.089 253.848 468.963C254.973 467.837 256.308 466.943 257.777 466.334C259.247 465.725 260.822 465.411 262.412 465.411H283.742C286.954 465.411 290.035 466.689 292.306 468.963C294.578 471.237 295.854 474.321 295.854 477.537V658.74C298.868 661.351 301.941 663.879 305.072 666.324V521.207C305.087 518.002 306.37 514.932 308.64 512.671C310.91 510.409 313.982 509.14 317.184 509.14H338.514C340.104 509.14 341.679 509.453 343.149 510.063C344.618 510.672 345.953 511.565 347.078 512.691C348.203 513.817 349.095 515.154 349.703 516.625C350.312 518.096 350.625 519.673 350.625 521.266V694.012C354.522 695.773 358.491 697.432 362.504 698.99V423.254C362.503 421.661 362.814 420.082 363.422 418.61C364.03 417.137 364.922 415.798 366.047 414.671C367.172 413.543 368.507 412.649 369.978 412.038C371.448 411.428 373.024 411.114 374.616 411.114H395.946C397.538 411.114 399.114 411.428 400.584 412.038C402.055 412.649 403.391 413.543 404.516 414.671C405.64 415.798 406.532 417.137 407.14 418.61C407.748 420.082 408.06 421.661 408.058 423.254V711.218C411.824 711.829 415.619 712.324 419.443 712.746V554.266C419.443 551.046 420.72 547.958 422.994 545.681C425.268 543.405 428.353 542.126 431.569 542.126H452.884C454.477 542.124 456.055 542.436 457.527 543.046C458.999 543.655 460.337 544.549 461.463 545.677C462.589 546.805 463.482 548.144 464.091 549.618C464.7 551.092 465.012 552.671 465.01 554.266V713.037C469.246 712.649 473.443 712.14 477.602 711.509V383.398C477.606 380.18 478.885 377.096 481.159 374.823C483.432 372.549 486.515 371.272 489.728 371.272H511.044C512.635 371.27 514.212 371.582 515.683 372.191C517.154 372.799 518.491 373.692 519.617 374.818C520.743 375.945 521.637 377.282 522.246 378.754C522.856 380.226 523.17 381.804 523.17 383.398V699.616C527.096 698.141 530.973 696.554 534.802 694.856V423.254C534.8 421.661 535.112 420.082 535.719 418.61C536.327 417.137 537.219 415.798 538.344 414.671C539.469 413.543 540.805 412.649 542.275 412.038C543.745 411.428 545.322 411.114 546.913 411.114H568.243C569.835 411.114 571.411 411.428 572.882 412.038C574.352 412.649 575.688 413.543 576.813 414.671C577.938 415.798 578.829 417.137 579.437 418.61C580.045 420.082 580.357 421.661 580.355 423.254V667.955C584.164 665.043 587.882 662.02 591.507 658.886V404.141V404.069Z" fill="#DEEAD9"/>
<path d="M262.412 514.22H283.742C286.954 514.22 290.035 515.498 292.306 517.772C294.578 520.046 295.854 523.13 295.854 526.346V477.537C295.838 474.331 294.556 471.262 292.286 469C290.016 466.739 286.944 465.469 283.742 465.469H262.412C259.2 465.469 256.119 466.747 253.848 469.021C251.576 471.295 250.3 474.379 250.3 477.595V526.404C250.293 524.807 250.6 523.224 251.206 521.746C251.811 520.268 252.702 518.924 253.827 517.792C254.953 516.66 256.29 515.762 257.764 515.149C259.237 514.536 260.817 514.22 262.412 514.22V514.22Z" fill="#89C878"/>
<path d="M317.184 557.891H338.514C341.726 557.891 344.806 559.168 347.078 561.442C349.349 563.716 350.625 566.8 350.625 570.016V521.207C350.625 519.615 350.312 518.038 349.703 516.567C349.095 515.096 348.203 513.759 347.078 512.633C345.953 511.507 344.618 510.614 343.149 510.005C341.679 509.395 340.104 509.082 338.514 509.082H317.184C313.971 509.082 310.891 510.359 308.619 512.633C306.348 514.907 305.072 517.991 305.072 521.207V570.016C305.072 566.8 306.348 563.716 308.619 561.442C310.891 559.168 313.971 557.891 317.184 557.891V557.891Z" fill="#89C878"/>
<path d="M374.616 459.879H395.946C399.158 459.879 402.239 461.157 404.51 463.431C406.782 465.705 408.058 468.789 408.058 472.005V423.254C408.06 421.661 407.748 420.082 407.14 418.61C406.532 417.137 405.64 415.798 404.516 414.671C403.391 413.543 402.055 412.649 400.584 412.038C399.114 411.428 397.538 411.114 395.946 411.114H374.616C373.024 411.114 371.448 411.428 369.978 412.038C368.507 412.649 367.172 413.543 366.047 414.671C364.922 415.798 364.03 417.137 363.422 418.61C362.814 420.082 362.503 421.661 362.505 423.254V472.063C362.497 470.466 362.804 468.883 363.41 467.405C364.015 465.927 364.906 464.584 366.031 463.452C367.157 462.319 368.495 461.421 369.968 460.808C371.441 460.195 373.021 459.879 374.616 459.879Z" fill="#89C878"/>
<path d="M431.569 590.891H452.884C454.476 590.889 456.052 591.201 457.524 591.81C458.995 592.418 460.332 593.311 461.458 594.437C462.584 595.564 463.477 596.901 464.087 598.373C464.697 599.845 465.01 601.423 465.01 603.017V554.266C465.012 552.671 464.7 551.091 464.091 549.618C463.482 548.144 462.589 546.805 461.463 545.677C460.337 544.549 458.999 543.655 457.527 543.046C456.055 542.436 454.477 542.124 452.884 542.125H431.569C428.353 542.125 425.268 543.405 422.994 545.681C420.72 547.958 419.442 551.046 419.442 554.266V603.075C419.437 601.477 419.746 599.894 420.353 598.416C420.96 596.938 421.852 595.594 422.979 594.462C424.105 593.33 425.444 592.432 426.918 591.819C428.392 591.206 429.973 590.891 431.569 590.891Z" fill="#89C878"/>
<path d="M489.728 420.081H511.043C512.636 420.079 514.214 420.392 515.686 421.001C517.158 421.611 518.496 422.505 519.622 423.633C520.749 424.76 521.642 426.099 522.251 427.573C522.859 429.047 523.172 430.627 523.17 432.221V383.398C523.17 381.804 522.856 380.226 522.246 378.754C521.637 377.282 520.743 375.945 519.617 374.818C518.491 373.692 517.154 372.799 515.683 372.191C514.212 371.582 512.635 371.27 511.043 371.272H489.728C486.514 371.272 483.432 372.549 481.159 374.823C478.885 377.096 477.606 380.18 477.602 383.398V432.221C477.602 429.002 478.879 425.914 481.153 423.637C483.428 421.36 486.512 420.081 489.728 420.081Z" fill="#89C878"/>
<path d="M546.913 459.879H568.243C571.455 459.879 574.536 461.157 576.807 463.431C579.079 465.705 580.355 468.789 580.355 472.005V423.254C580.357 421.661 580.045 420.082 579.437 418.61C578.829 417.137 577.937 415.798 576.813 414.671C575.688 413.543 574.352 412.649 572.882 412.038C571.411 411.428 569.835 411.114 568.243 411.114H546.913C545.322 411.114 543.745 411.428 542.275 412.038C540.805 412.649 539.469 413.543 538.344 414.671C537.219 415.798 536.327 417.137 535.719 418.61C535.112 420.082 534.8 421.661 534.802 423.254V472.063C534.794 470.466 535.102 468.883 535.707 467.405C536.312 465.927 537.203 464.584 538.328 463.452C539.454 462.319 540.792 461.421 542.265 460.808C543.738 460.195 545.318 459.879 546.913 459.879Z" fill="#89C878"/>
<path d="M591.507 355.26V404.069C591.507 400.853 592.783 397.768 595.054 395.494C597.326 393.22 600.406 391.943 603.619 391.943H637.06V371.942C630.965 361.834 624.085 352.221 616.486 343.192H603.619C600.416 343.192 597.345 344.461 595.075 346.723C592.805 348.984 591.522 352.054 591.507 355.26V355.26Z" fill="#89C878"/>
<path d="M637.06 417.432V406.223C637.017 409.789 636.973 413.487 637.06 417.432Z" fill="#89C878"/>
<path d="M295.854 526.346C295.854 523.13 294.578 520.046 292.306 517.772C290.035 515.498 286.954 514.22 283.742 514.22H262.412C259.2 514.22 256.119 515.498 253.848 517.772C251.577 520.046 250.301 523.13 250.301 526.346V604.414C262.55 624.799 277.922 643.131 295.854 658.74V526.346V526.346Z" fill="#6DA05C"/>
<path d="M350.625 570.016C350.625 566.801 349.349 563.716 347.078 561.442C344.806 559.168 341.726 557.891 338.514 557.891H317.184C313.971 557.891 310.891 559.168 308.619 561.442C306.348 563.716 305.072 566.801 305.072 570.016V666.354C319.113 677.341 334.404 686.625 350.625 694.012V570.016V570.016Z" fill="#6DA05C"/>
<path d="M408.058 472.005C408.058 468.789 406.782 465.705 404.51 463.431C402.239 461.157 399.158 459.879 395.946 459.879H374.616C371.404 459.879 368.323 461.157 366.052 463.431C363.78 465.705 362.504 468.789 362.504 472.005V698.946C377.215 704.631 392.484 708.745 408.058 711.218V472.005Z" fill="#6DA05C"/>
<path d="M465.01 603.017C465.01 601.423 464.697 599.845 464.087 598.373C463.477 596.901 462.584 595.564 461.458 594.437C460.332 593.311 458.995 592.418 457.524 591.81C456.052 591.201 454.476 590.889 452.884 590.891H431.569C428.355 590.891 425.273 592.168 422.999 594.442C420.726 596.715 419.446 599.8 419.443 603.017V712.746C427.508 713.605 435.613 714.037 443.724 714.042C450.907 714.042 458.002 713.692 465.01 713.037V603.017Z" fill="#6DA05C"/>
<path d="M523.17 432.221C523.172 430.627 522.859 429.047 522.251 427.573C521.642 426.099 520.749 424.76 519.622 423.633C518.496 422.505 517.158 421.611 515.686 421.001C514.214 420.392 512.636 420.079 511.043 420.081H489.728C486.512 420.081 483.428 421.36 481.153 423.637C478.879 425.914 477.602 429.002 477.602 432.221V711.48C493.167 709.131 508.44 705.145 523.17 699.587V432.221Z" fill="#6DA05C"/>
<path d="M580.355 472.005C580.355 468.789 579.079 465.705 576.807 463.431C574.536 461.157 571.455 459.879 568.243 459.879H546.913C543.701 459.879 540.62 461.157 538.349 463.431C536.078 465.705 534.802 468.789 534.802 472.005V694.856C550.989 687.688 566.278 678.639 580.355 667.897V472.005Z" fill="#6DA05C"/>
<path d="M636.784 392.29V406.57C636.857 401.548 636.944 396.817 636.784 392.29Z" fill="#6DA05C"/>
<path d="M637.06 391.943H603.619C600.406 391.943 597.326 393.22 595.054 395.494C592.783 397.768 591.507 400.853 591.507 404.069V658.813C606.958 645.377 620.521 629.908 631.826 612.828C633.658 609.204 635.417 605.55 637.06 601.823V417.432C636.973 413.53 637.06 409.833 637.06 406.267V391.943Z" fill="#6DA05C"/>
</g>
<defs>
<clipPath id="clip0">
<rect width="1000" height="1000" fill="white" transform="translate(-225 -76)"/>
</clipPath>
</defs>
</svg>
