<svg width="1920" height="1080" viewBox="0 0 1920 1080" fill="none" xmlns="http://www.w3.org/2000/svg">
<g clip-path="url(#clip0)">
<rect width="1920" height="1080" fill="#F0FEEB"/>
<rect y="-80.4" width="106" height="470" rx="22" fill="#89C878" fill-opacity="0.3"/>
<rect x="176" y="-259" width="106" height="470" rx="22" fill="#89C878" fill-opacity="0.3"/>
<rect x="356" y="-202.6" width="106" height="470" rx="22" fill="#89C878" fill-opacity="0.3"/>
<rect x="510" y="-290.618" width="106" height="470" rx="22" fill="#89C878" fill-opacity="0.3"/>
<rect x="669" y="-259" width="106" height="470" rx="22" fill="#89C878" fill-opacity="0.3"/>
<rect x="854" y="-397.436" width="106" height="625.527" rx="22" fill="#89C878" fill-opacity="0.3"/>
<rect x="996" y="-241.909" width="106" height="470" rx="22" fill="#89C878" fill-opacity="0.3"/>
<rect x="1180" y="-494" width="106" height="673.382" rx="22" fill="#89C878" fill-opacity="0.3"/>
<rect x="1347" y="-358.127" width="106" height="552.036" rx="22" fill="#89C878" fill-opacity="0.3"/>
<rect x="1506" y="-593.127" width="106" height="860.527" rx="22" fill="#89C878" fill-opacity="0.3"/>
<rect x="1660" y="-532.455" width="106" height="760.545" rx="22" fill="#89C878" fill-opacity="0.3"/>
<rect x="1814" y="-729" width="106" height="957.091" rx="22" fill="#89C878" fill-opacity="0.3"/>
<rect y="-24" width="106" height="470" rx="22" fill="#6DA05C" fill-opacity="0.3"/>
<rect x="176" y="-175.255" width="106" height="470" rx="22" fill="#6DA05C" fill-opacity="0.3"/>
<rect x="356" y="-129.109" width="106" height="470" rx="22" fill="#6DA05C" fill-opacity="0.3"/>
<rect x="510" y="-202.6" width="106" height="470" rx="22" fill="#6DA05C" fill-opacity="0.3"/>
<rect x="669" y="-175.255" width="106" height="470" rx="22" fill="#6DA05C" fill-opacity="0.3"/>
<rect x="854" y="-290.618" width="106" height="470" rx="22" fill="#6DA05C" fill-opacity="0.3"/>
<rect x="996" y="-175.255" width="106" height="470" rx="22" fill="#6DA05C" fill-opacity="0.3"/>
<rect x="1180" y="-397.436" width="106" height="563.145" rx="22" fill="#6DA05C" fill-opacity="0.3"/>
<rect x="1347" y="-277.8" width="106" height="563.145" rx="22" fill="#6DA05C" fill-opacity="0.3"/>
<rect x="1506" y="-507.673" width="106" height="673.382" rx="22" fill="#6DA05C" fill-opacity="0.3"/>
<rect x="1660" y="-452.127" width="106" height="673.382" rx="22" fill="#6DA05C" fill-opacity="0.3"/>
<rect x="1814" y="-618.764" width="106" height="793.018" rx="22" fill="#6DA05C" fill-opacity="0.3"/>
</g>
<defs>
<clipPath id="clip0">
<rect width="1920" height="1080" fill="white"/>
</clipPath>
</defs>
</svg>
