<svg width="1076" height="135" viewBox="0 0 1076 135" fill="none" xmlns="http://www.w3.org/2000/svg">
<path d="M1049 0H26C11.6406 0 0 11.6406 0 26V109C0 123.359 11.6406 135 26 135H1049C1063.36 135 1075 123.359 1075 109V26C1075 11.6406 1063.36 0 1049 0Z" fill="#89C878"/>
<path d="M1050 0H781C766.641 0 755 11.6406 755 26V109C755 123.359 766.641 135 781 135H1050C1064.36 135 1076 123.359 1076 109V26C1076 11.6406 1064.36 0 1050 0Z" fill="#6A9957"/>
<path d="M43.9754 66.8396V91.7041H58.7457C59.7715 91.7041 60.5066 91.9109 60.951 92.3244C61.3955 92.7035 61.6178 93.2204 61.6178 93.8752C61.6178 94.4955 61.3955 95.0125 60.951 95.426C60.5066 95.8396 59.7715 96.0463 58.7457 96.0463H33.872C32.8463 96.0463 32.1112 95.8396 31.6667 95.426C31.2222 95.0125 31 94.4955 31 93.8752C31 93.2204 31.2222 92.7035 31.6667 92.3244C32.1112 91.9109 32.8463 91.7041 33.872 91.7041H39.6673V39.9073H33.872C32.8463 39.9073 32.1112 39.7178 31.6667 39.3387C31.2222 38.9251 31 38.391 31 37.7362C31 37.0814 31.2564 36.53 31.7693 36.082C32.1454 35.7374 32.8463 35.5651 33.872 35.5651H81.3116V50.5045C81.3116 51.5383 81.1064 52.2793 80.6962 52.7273C80.2859 53.1753 79.773 53.3993 79.1576 53.3993C78.508 53.3993 77.978 53.1753 77.5677 52.7273C77.1574 52.2793 76.9523 51.5383 76.9523 50.5045V39.9073H43.9754V62.4973H59.4125V57.5865C59.4125 56.5526 59.6176 55.8116 60.0279 55.3636C60.4382 54.9156 60.9681 54.6916 61.6178 54.6916C62.2332 54.6916 62.746 54.9156 63.1563 55.3636C63.5666 55.8116 63.7718 56.5526 63.7718 57.5865V71.7504C63.7718 72.7843 63.5666 73.5253 63.1563 73.9733C62.746 74.4213 62.2332 74.6453 61.6178 74.6453C60.9681 74.6453 60.4382 74.4213 60.0279 73.9733C59.6176 73.5253 59.4125 72.7843 59.4125 71.7504V66.8396H43.9754Z" fill="#FFFDFD"/>
<path d="M119.571 29V40.2175H113.211V29H119.571ZM119.725 51.2799V91.7041H136.649C137.709 91.7041 138.461 91.9109 138.906 92.3244C139.35 92.7035 139.573 93.2204 139.573 93.8752C139.573 94.4955 139.35 95.0125 138.906 95.426C138.461 95.8396 137.709 96.0463 136.649 96.0463H98.4924C97.4667 96.0463 96.7316 95.8396 96.2871 95.426C95.8426 95.0125 95.6204 94.4955 95.6204 93.8752C95.6204 93.2204 95.8426 92.7035 96.2871 92.3244C96.7316 91.9109 97.4667 91.7041 98.4924 91.7041H115.417V55.6738H102.852C101.826 55.6738 101.074 55.467 100.595 55.0535C100.151 54.6399 99.9284 54.123 99.9284 53.5027C99.9284 52.8479 100.151 52.3137 100.595 51.9002C101.04 51.4866 101.792 51.2799 102.852 51.2799H119.725Z" fill="#FFFDFD"/>
<path d="M166.6 51.2799V57.8449C169.609 54.7778 172.327 52.6583 174.755 51.4866C177.182 50.3149 179.918 49.7291 182.96 49.7291C186.243 49.7291 189.234 50.4355 191.936 51.8485C193.85 52.8824 195.577 54.6055 197.115 57.0178C198.688 59.3957 199.475 61.8425 199.475 64.3583V91.7041H203.116C204.142 91.7041 204.877 91.9109 205.321 92.3244C205.766 92.7035 205.988 93.2204 205.988 93.8752C205.988 94.4955 205.766 95.0125 205.321 95.426C204.877 95.8396 204.142 96.0463 203.116 96.0463H191.577C190.517 96.0463 189.764 95.8396 189.32 95.426C188.875 95.0125 188.653 94.4955 188.653 93.8752C188.653 93.2204 188.875 92.7035 189.32 92.3244C189.764 91.9109 190.517 91.7041 191.577 91.7041H195.167V65.082C195.167 62.0149 194.055 59.4302 191.833 57.328C189.611 55.1913 186.636 54.123 182.909 54.123C180.071 54.123 177.61 54.7089 175.524 55.8806C173.438 57.0178 170.464 59.8782 166.6 64.4617V91.7041H171.472C172.498 91.7041 173.233 91.9109 173.678 92.3244C174.122 92.7035 174.344 93.2204 174.344 93.8752C174.344 94.4955 174.122 95.0125 173.678 95.426C173.233 95.8396 172.498 96.0463 171.472 96.0463H157.42C156.394 96.0463 155.659 95.8396 155.215 95.426C154.77 95.0125 154.548 94.4955 154.548 93.8752C154.548 93.2204 154.77 92.7035 155.215 92.3244C155.659 91.9109 156.394 91.7041 157.42 91.7041H162.292V55.6738H158.651C157.625 55.6738 156.89 55.467 156.446 55.0535C156.001 54.6399 155.779 54.1058 155.779 53.451C155.779 52.8307 156.001 52.3137 156.446 51.9002C156.89 51.4866 157.625 51.2799 158.651 51.2799H166.6Z" fill="#FFFDFD"/>
<path d="M255.992 96.0463V89.7914C249.735 95.0986 243.051 97.7522 235.939 97.7522C230.776 97.7522 226.742 96.4427 223.835 93.8235C220.929 91.1699 219.476 87.9305 219.476 84.1052C219.476 79.9008 221.391 76.2305 225.22 73.0945C229.05 69.9584 234.64 68.3904 241.991 68.3904C243.974 68.3904 246.128 68.5282 248.453 68.8039C250.778 69.0452 253.291 69.4415 255.992 69.9929V62.9626C255.992 60.5847 254.898 58.5169 252.709 56.7594C250.521 55.0018 247.239 54.123 242.863 54.123C239.512 54.123 234.811 55.1052 228.759 57.0695C227.665 57.4141 226.964 57.5865 226.656 57.5865C226.109 57.5865 225.63 57.3797 225.22 56.9661C224.844 56.5526 224.656 56.0357 224.656 55.4153C224.656 54.8295 224.827 54.3642 225.169 54.0196C225.648 53.5027 227.579 52.7962 230.964 51.9002C236.298 50.4528 240.332 49.7291 243.068 49.7291C248.504 49.7291 252.744 51.0903 255.787 53.8128C258.83 56.5009 260.351 59.5508 260.351 62.9626V91.7041H266.095C267.155 91.7041 267.907 91.9109 268.352 92.3244C268.796 92.7035 269.018 93.2204 269.018 93.8752C269.018 94.4955 268.796 95.0125 268.352 95.426C267.907 95.8396 267.155 96.0463 266.095 96.0463H255.992ZM255.992 74.4385C253.975 73.8526 251.838 73.4219 249.581 73.1462C247.324 72.8705 244.948 72.7326 242.452 72.7326C236.195 72.7326 231.306 74.0939 227.784 76.8164C225.118 78.8497 223.784 81.2793 223.784 84.1052C223.784 86.7243 224.793 88.9299 226.81 90.7219C228.861 92.514 231.836 93.41 235.734 93.41C239.461 93.41 242.914 92.669 246.094 91.1872C249.308 89.6708 252.607 87.2757 255.992 84.0018V74.4385Z" fill="#FFFDFD"/>
<path d="M292.764 51.2799V57.8449C295.773 54.7778 298.491 52.6583 300.918 51.4866C303.346 50.3149 306.081 49.7291 309.124 49.7291C312.406 49.7291 315.398 50.4355 318.099 51.8485C320.014 52.8824 321.74 54.6055 323.279 57.0178C324.852 59.3957 325.638 61.8425 325.638 64.3583V91.7041H329.28C330.305 91.7041 331.04 91.9109 331.485 92.3244C331.929 92.7035 332.152 93.2204 332.152 93.8752C332.152 94.4955 331.929 95.0125 331.485 95.426C331.04 95.8396 330.305 96.0463 329.28 96.0463H317.74C316.68 96.0463 315.928 95.8396 315.484 95.426C315.039 95.0125 314.817 94.4955 314.817 93.8752C314.817 93.2204 315.039 92.7035 315.484 92.3244C315.928 91.9109 316.68 91.7041 317.74 91.7041H321.33V65.082C321.33 62.0149 320.219 59.4302 317.997 57.328C315.774 55.1913 312.8 54.123 309.073 54.123C306.235 54.123 303.773 54.7089 301.688 55.8806C299.602 57.0178 296.627 59.8782 292.764 64.4617V91.7041H297.636C298.662 91.7041 299.397 91.9109 299.841 92.3244C300.286 92.7035 300.508 93.2204 300.508 93.8752C300.508 94.4955 300.286 95.0125 299.841 95.426C299.397 95.8396 298.662 96.0463 297.636 96.0463H283.584C282.558 96.0463 281.823 95.8396 281.378 95.426C280.934 95.0125 280.712 94.4955 280.712 93.8752C280.712 93.2204 280.934 92.7035 281.378 92.3244C281.823 91.9109 282.558 91.7041 283.584 91.7041H288.456V55.6738H284.815C283.789 55.6738 283.054 55.467 282.609 55.0535C282.165 54.6399 281.943 54.1058 281.943 53.451C281.943 52.8307 282.165 52.3137 282.609 51.9002C283.054 51.4866 283.789 51.2799 284.815 51.2799H292.764Z" fill="#FFFDFD"/>
<path d="M387.746 55.6738V54.2264C387.746 53.1581 387.951 52.3999 388.361 51.9519C388.771 51.5039 389.284 51.2799 389.9 51.2799C390.549 51.2799 391.079 51.5039 391.489 51.9519C391.9 52.3999 392.105 53.1581 392.105 54.2264V64.0481C392.071 65.1165 391.848 65.8746 391.438 66.3226C391.062 66.7706 390.549 66.9947 389.9 66.9947C389.318 66.9947 388.823 66.8051 388.412 66.426C388.036 66.0125 387.814 65.3405 387.746 64.41C387.54 61.9632 385.933 59.637 382.925 57.4314C379.95 55.2258 375.933 54.123 370.872 54.123C364.479 54.123 359.624 56.139 356.307 60.1711C352.991 64.2032 351.333 68.8212 351.333 74.025C351.333 79.6423 353.162 84.2775 356.82 87.9305C360.478 91.5835 365.214 93.41 371.026 93.41C374.377 93.41 377.779 92.7897 381.232 91.549C384.72 90.3084 387.865 88.3096 390.669 85.5526C391.387 84.8633 392.019 84.5187 392.566 84.5187C393.148 84.5187 393.626 84.7255 394.002 85.139C394.413 85.5181 394.618 86.0006 394.618 86.5865C394.618 88.0683 392.891 89.9465 389.438 92.221C383.865 95.9085 377.659 97.7522 370.821 97.7522C363.88 97.7522 358.171 95.5294 353.692 91.0838C349.247 86.6037 347.024 80.9346 347.024 74.0767C347.024 67.0808 349.298 61.2739 353.846 56.656C358.427 52.038 364.188 49.7291 371.129 49.7291C377.728 49.7291 383.267 51.7106 387.746 55.6738Z" fill="#FFFDFD"/>
<path d="M434.98 29V40.2175H428.621V29H434.98ZM435.134 51.2799V91.7041H452.058C453.118 91.7041 453.87 91.9109 454.315 92.3244C454.759 92.7035 454.982 93.2204 454.982 93.8752C454.982 94.4955 454.759 95.0125 454.315 95.426C453.87 95.8396 453.118 96.0463 452.058 96.0463H413.901C412.876 96.0463 412.141 95.8396 411.696 95.426C411.252 95.0125 411.029 94.4955 411.029 93.8752C411.029 93.2204 411.252 92.7035 411.696 92.3244C412.141 91.9109 412.876 91.7041 413.901 91.7041H430.826V55.6738H418.261C417.235 55.6738 416.483 55.467 416.004 55.0535C415.56 54.6399 415.337 54.123 415.337 53.5027C415.337 52.8479 415.56 52.3137 416.004 51.9002C416.449 51.4866 417.201 51.2799 418.261 51.2799H435.134Z" fill="#FFFDFD"/>
<path d="M508.319 96.0463V89.7914C502.062 95.0986 495.378 97.7522 488.266 97.7522C483.103 97.7522 479.069 96.4427 476.163 93.8235C473.256 91.1699 471.803 87.9305 471.803 84.1052C471.803 79.9008 473.718 76.2305 477.547 73.0945C481.377 69.9584 486.967 68.3904 494.318 68.3904C496.301 68.3904 498.455 68.5282 500.78 68.8039C503.105 69.0452 505.618 69.4415 508.319 69.9929V62.9626C508.319 60.5847 507.225 58.5169 505.037 56.7594C502.849 55.0018 499.566 54.123 495.19 54.123C491.839 54.123 487.138 55.1052 481.086 57.0695C479.992 57.4141 479.291 57.5865 478.983 57.5865C478.436 57.5865 477.958 57.3797 477.547 56.9661C477.171 56.5526 476.983 56.0357 476.983 55.4153C476.983 54.8295 477.154 54.3642 477.496 54.0196C477.975 53.5027 479.907 52.7962 483.291 51.9002C488.625 50.4528 492.66 49.7291 495.395 49.7291C500.831 49.7291 505.071 51.0903 508.114 53.8128C511.157 56.5009 512.678 59.5508 512.678 62.9626V91.7041H518.422C519.482 91.7041 520.234 91.9109 520.679 92.3244C521.123 92.7035 521.346 93.2204 521.346 93.8752C521.346 94.4955 521.123 95.0125 520.679 95.426C520.234 95.8396 519.482 96.0463 518.422 96.0463H508.319ZM508.319 74.4385C506.302 73.8526 504.165 73.4219 501.908 73.1462C499.652 72.8705 497.275 72.7326 494.78 72.7326C488.523 72.7326 483.633 74.0939 480.112 76.8164C477.445 78.8497 476.111 81.2793 476.111 84.1052C476.111 86.7243 477.12 88.9299 479.137 90.7219C481.189 92.514 484.163 93.41 488.061 93.41C491.788 93.41 495.241 92.669 498.421 91.1872C501.635 89.6708 504.934 87.2757 508.319 84.0018V74.4385Z" fill="#FFFDFD"/>
<path d="M561.195 31.1711V91.7041H578.119C579.179 91.7041 579.931 91.9109 580.376 92.3244C580.82 92.7035 581.043 93.2204 581.043 93.8752C581.043 94.4955 580.82 95.0125 580.376 95.426C579.931 95.8396 579.179 96.0463 578.119 96.0463H539.962C538.937 96.0463 538.202 95.8396 537.757 95.426C537.313 95.0125 537.09 94.4955 537.09 93.8752C537.09 93.2204 537.313 92.7035 537.757 92.3244C538.202 91.9109 538.937 91.7041 539.962 91.7041H556.887V35.5651H544.476C543.45 35.5651 542.698 35.3583 542.219 34.9447C541.775 34.5312 541.552 33.997 541.552 33.3422C541.552 32.7219 541.775 32.205 542.219 31.7914C542.664 31.3779 543.416 31.1711 544.476 31.1711H561.195Z" fill="#FFFDFD"/>
<path d="M624.277 31.1711V91.7041H641.201C642.261 91.7041 643.013 91.9109 643.458 92.3244C643.902 92.7035 644.124 93.2204 644.124 93.8752C644.124 94.4955 643.902 95.0125 643.458 95.426C643.013 95.8396 642.261 96.0463 641.201 96.0463H603.044C602.019 96.0463 601.283 95.8396 600.839 95.426C600.395 95.0125 600.172 94.4955 600.172 93.8752C600.172 93.2204 600.395 92.7035 600.839 92.3244C601.283 91.9109 602.019 91.7041 603.044 91.7041H619.969V35.5651H607.557C606.532 35.5651 605.78 35.3583 605.301 34.9447C604.856 34.5312 604.634 33.997 604.634 33.3422C604.634 32.7219 604.856 32.205 605.301 31.7914C605.745 31.3779 606.498 31.1711 607.557 31.1711H624.277Z" fill="#FFFDFD"/>
<path d="M685.461 96.0463L665.459 55.6738H664.177C663.152 55.6738 662.416 55.467 661.972 55.0535C661.527 54.6399 661.305 54.123 661.305 53.5027C661.305 53.0547 661.408 52.6583 661.613 52.3137C661.852 51.9346 662.143 51.6762 662.485 51.5383C662.861 51.366 663.425 51.2799 664.177 51.2799H675.973C676.999 51.2799 677.734 51.4866 678.178 51.9002C678.623 52.3137 678.845 52.8479 678.845 53.5027C678.845 54.123 678.623 54.6399 678.178 55.0535C677.734 55.467 676.999 55.6738 675.973 55.6738H670.178L687.769 91.2906L705.103 55.6738H699.308C698.282 55.6738 697.547 55.467 697.103 55.0535C696.658 54.6399 696.436 54.1058 696.436 53.451C696.436 52.8307 696.658 52.3137 697.103 51.9002C697.547 51.4866 698.282 51.2799 699.308 51.2799H711.053C712.113 51.2799 712.865 51.4866 713.309 51.9002C713.754 52.3137 713.976 52.8479 713.976 53.5027C713.976 53.9507 713.839 54.3642 713.566 54.7433C713.292 55.1224 712.984 55.3809 712.643 55.5187C712.301 55.6221 711.343 55.6738 709.771 55.6738L682.486 111.658H689.205C690.231 111.658 690.966 111.847 691.41 112.226C691.855 112.64 692.077 113.174 692.077 113.829C692.077 114.449 691.855 114.966 691.41 115.38C690.966 115.793 690.231 116 689.205 116H664.382C663.357 116 662.622 115.793 662.177 115.38C661.733 115.001 661.51 114.484 661.51 113.829C661.51 113.174 661.733 112.64 662.177 112.226C662.622 111.847 663.357 111.658 664.382 111.658H677.871L685.461 96.0463Z" fill="#FFFDFD"/>
<path d="M800.957 66.8396V91.7041H815.727C816.753 91.7041 817.488 91.9109 817.933 92.3244C818.377 92.7035 818.599 93.2204 818.599 93.8752C818.599 94.4955 818.377 95.0125 817.933 95.426C817.488 95.8396 816.753 96.0463 815.727 96.0463H790.854C789.828 96.0463 789.093 95.8396 788.648 95.426C788.204 95.0125 787.982 94.4955 787.982 93.8752C787.982 93.2204 788.204 92.7035 788.648 92.3244C789.093 91.9109 789.828 91.7041 790.854 91.7041H796.649V39.9073H790.854C789.828 39.9073 789.093 39.7178 788.648 39.3387C788.204 38.9251 787.982 38.391 787.982 37.7362C787.982 37.0814 788.238 36.53 788.751 36.082C789.127 35.7374 789.828 35.5651 790.854 35.5651H838.293V50.5045C838.293 51.5383 838.088 52.2793 837.678 52.7273C837.268 53.1753 836.755 53.3993 836.139 53.3993C835.49 53.3993 834.96 53.1753 834.549 52.7273C834.139 52.2793 833.934 51.5383 833.934 50.5045V39.9073H800.957V62.4973H816.394V57.5865C816.394 56.5526 816.599 55.8116 817.01 55.3636C817.42 54.9156 817.95 54.6916 818.599 54.6916C819.215 54.6916 819.728 54.9156 820.138 55.3636C820.548 55.8116 820.753 56.5526 820.753 57.5865V71.7504C820.753 72.7843 820.548 73.5253 820.138 73.9733C819.728 74.4213 819.215 74.6453 818.599 74.6453C817.95 74.6453 817.42 74.4213 817.01 73.9733C816.599 73.5253 816.394 72.7843 816.394 71.7504V66.8396H800.957Z" fill="#FFFDFD"/>
<path d="M869.27 51.2799V62.2389C874.877 57.1384 879.066 53.8645 881.835 52.4171C884.639 50.9352 887.22 50.1943 889.579 50.1943C892.144 50.1943 894.52 51.0731 896.708 52.8307C898.93 54.5538 900.042 55.8633 900.042 56.7594C900.042 57.4141 899.819 57.9655 899.375 58.4135C898.965 58.8271 898.435 59.0339 897.785 59.0339C897.443 59.0339 897.153 58.9822 896.913 58.8788C896.674 58.7409 896.229 58.3446 895.58 57.6898C894.383 56.4837 893.34 55.6566 892.451 55.2086C891.562 54.7605 890.69 54.5365 889.836 54.5365C887.955 54.5365 885.682 55.2947 883.015 56.8111C880.382 58.3274 875.8 62.0321 869.27 67.9251V91.7041H888.348C889.408 91.7041 890.161 91.9109 890.605 92.3244C891.05 92.7035 891.272 93.2204 891.272 93.8752C891.272 94.4955 891.05 95.0125 890.605 95.426C890.161 95.8396 889.408 96.0463 888.348 96.0463H854.551C853.525 96.0463 852.79 95.8568 852.346 95.4777C851.901 95.0642 851.679 94.5472 851.679 93.9269C851.679 93.3411 851.884 92.8586 852.294 92.4795C852.739 92.066 853.491 91.8592 854.551 91.8592H864.962V55.6738H857.013C855.987 55.6738 855.252 55.467 854.807 55.0535C854.363 54.6399 854.141 54.1058 854.141 53.451C854.141 52.8307 854.346 52.3137 854.756 51.9002C855.201 51.4866 855.953 51.2799 857.013 51.2799H869.27Z" fill="#FFFDFD"/>
<path d="M960.816 74.697H916.915C917.667 80.3143 919.992 84.8461 923.89 88.2923C927.822 91.7041 932.677 93.41 938.455 93.41C941.669 93.41 945.037 92.8758 948.558 91.8075C952.08 90.7392 954.952 89.3262 957.174 87.5686C957.824 87.0517 958.388 86.7932 958.867 86.7932C959.414 86.7932 959.892 87.0172 960.303 87.4652C960.713 87.8788 960.918 88.3785 960.918 88.9643C960.918 89.5502 960.645 90.1188 960.098 90.6702C958.456 92.3933 955.533 94.0131 951.328 95.5294C947.156 97.0113 942.866 97.7522 938.455 97.7522C931.07 97.7522 924.898 95.3226 919.941 90.4635C915.017 85.5698 912.555 79.6595 912.555 72.7326C912.555 66.426 914.863 61.0154 919.479 56.5009C924.129 51.9863 929.873 49.7291 936.711 49.7291C943.754 49.7291 949.55 52.0553 954.097 56.7077C958.645 61.3256 960.884 67.322 960.816 74.697ZM956.456 70.303C955.602 65.5128 953.345 61.6185 949.687 58.6203C946.062 55.6221 941.737 54.123 936.711 54.123C931.685 54.123 927.36 55.6049 923.736 58.5686C920.112 61.5324 917.855 65.4439 916.966 70.303H956.456Z" fill="#FFFDFD"/>
<path d="M1023.9 74.697H979.997C980.749 80.3143 983.074 84.8461 986.971 88.2923C990.903 91.7041 995.758 93.41 1001.54 93.41C1004.75 93.41 1008.12 92.8758 1011.64 91.8075C1015.16 90.7392 1018.03 89.3262 1020.26 87.5686C1020.91 87.0517 1021.47 86.7932 1021.95 86.7932C1022.5 86.7932 1022.97 87.0172 1023.38 87.4652C1023.79 87.8788 1024 88.3785 1024 88.9643C1024 89.5502 1023.73 90.1188 1023.18 90.6702C1021.54 92.3933 1018.61 94.0131 1014.41 95.5294C1010.24 97.0113 1005.95 97.7522 1001.54 97.7522C994.152 97.7522 987.98 95.3226 983.022 90.4635C978.099 85.5698 975.637 79.6595 975.637 72.7326C975.637 66.426 977.945 61.0154 982.561 56.5009C987.211 51.9863 992.955 49.7291 999.793 49.7291C1006.84 49.7291 1012.63 52.0553 1017.18 56.7077C1021.73 61.3256 1023.97 67.322 1023.9 74.697ZM1019.54 70.303C1018.68 65.5128 1016.43 61.6185 1012.77 58.6203C1009.14 55.6221 1004.82 54.123 999.793 54.123C994.767 54.123 990.442 55.6049 986.818 58.5686C983.193 61.5324 980.937 65.4439 980.048 70.303H1019.54Z" fill="#FFFDFD"/>
</svg>
